<?xml version="1.0" encoding="UTF-8"?>
<svg version="1.1" xmlns="http://www.w3.org/2000/svg" width="386" height="200">
<path d="M0 0 C127.38 0 254.76 0 386 0 C386 66 386 132 386 200 C258.62 200 131.24 200 0 200 C0 134 0 68 0 0 Z " fill="#FDFDFD" transform="translate(0,0)"/>
<path d="M0 0 C6.57621642 4.98431094 11.17682721 11.59436063 13.08984375 19.6484375 C13.84302124 26.62041829 13.27764872 32.38275186 10.08984375 38.6484375 C7.52734375 40.9609375 7.52734375 40.9609375 5.08984375 42.6484375 C4.42984375 43.6384375 3.76984375 44.6284375 3.08984375 45.6484375 C2.42984375 45.6484375 1.76984375 45.6484375 1.08984375 45.6484375 C1.08984375 46.3084375 1.08984375 46.9684375 1.08984375 47.6484375 C-7.27021509 50.03702574 -15.29750781 49.8386555 -23.91015625 49.6484375 C-23.91015625 48.9884375 -23.91015625 48.3284375 -23.91015625 47.6484375 C-24.57015625 47.6484375 -25.23015625 47.6484375 -25.91015625 47.6484375 C-25.91015625 46.9884375 -25.91015625 46.3284375 -25.91015625 45.6484375 C-26.71453125 45.4009375 -27.51890625 45.1534375 -28.34765625 44.8984375 C-30.91015625 43.6484375 -30.91015625 43.6484375 -31.91015625 41.7109375 C-31.91015625 39.6484375 -31.91015625 39.6484375 -30.734375 38 C-28.21367717 36.1324166 -26.77881372 36.52434358 -23.72265625 36.9609375 C-22.82160156 37.08082031 -21.92054688 37.20070312 -20.9921875 37.32421875 C-20.30511719 37.43121094 -19.61804688 37.53820312 -18.91015625 37.6484375 C-18.91015625 38.3084375 -18.91015625 38.9684375 -18.91015625 39.6484375 C-11.77338755 39.62499984 -6.49445841 39.3857485 -1.1171875 34.4140625 C0.49954652 32.29641104 0.49954652 32.29641104 1.08984375 27.6484375 C-10.46015625 27.6484375 -22.01015625 27.6484375 -33.91015625 27.6484375 C-33.91015625 10.51330236 -33.91015625 10.51330236 -29.91015625 5.6484375 C-25.60246394 1.6484375 -25.60246394 1.6484375 -22.91015625 1.6484375 C-22.91015625 0.9884375 -22.91015625 0.3284375 -22.91015625 -0.3515625 C-16.02863474 -2.4743969 -6.62637742 -3.07748535 0 0 Z " fill="#151515" transform="translate(366.91015625,66.3515625)"/>
<path d="M0 0 C4.29885375 3.40512116 5.47634535 5.37065945 8.12890625 10.67578125 C8.12890625 15.29578125 8.12890625 19.91578125 8.12890625 24.67578125 C-3.75109375 24.67578125 -15.63109375 24.67578125 -27.87109375 24.67578125 C-25.76793306 32.21166832 -25.76793306 32.21166832 -22.59375 34.66015625 C-19.33064422 35.87738366 -16.78617651 36.00637413 -13.30859375 35.92578125 C-11.63603516 35.90257813 -11.63603516 35.90257813 -9.9296875 35.87890625 C-7.39040838 35.71026958 -5.30688289 35.32497878 -2.87109375 34.67578125 C-0.53808442 34.63689776 1.79600426 34.63091775 4.12890625 34.67578125 C4.62390625 37.15078125 4.62390625 37.15078125 5.12890625 39.67578125 C1.37890625 42.67578125 1.37890625 42.67578125 -0.87109375 42.67578125 C-0.87109375 43.33578125 -0.87109375 43.99578125 -0.87109375 44.67578125 C-9.11655776 47.60750179 -17.67716711 47.82662874 -25.93359375 44.73046875 C-29.16712733 42.9702791 -30.7515057 40.66814084 -32.87109375 37.67578125 C-33.40734375 37.18078125 -33.94359375 36.68578125 -34.49609375 36.17578125 C-39.61279597 30.59392429 -39.32907328 24.44478336 -39.140625 17.3046875 C-38.59531182 9.96271732 -36.9396402 6.38288067 -31.55859375 1.30078125 C-22.38797748 -6.19443397 -9.88106239 -6.9930692 0 0 Z " fill="#111111" transform="translate(162.87109375,69.32421875)"/>
<path d="M0 0 C3.63 0 7.26 0 11 0 C11.00410889 0.99854004 11.00821777 1.99708008 11.01245117 3.02587891 C11.03431323 6.75002836 11.08867401 10.47313182 11.15258789 14.19677734 C11.17570671 15.80474786 11.19014924 17.41286848 11.19555664 19.02099609 C11.20489196 21.34046299 11.24597459 23.65758914 11.29296875 25.9765625 C11.2890361 26.68930328 11.28510345 27.40204407 11.28105164 28.13638306 C11.44485115 33.80885989 13.05876132 36.19766604 17 40 C19.80721433 40.79075245 19.80721433 40.79075245 22.6875 40.5 C23.64011719 40.4690625 24.59273438 40.438125 25.57421875 40.40625 C28.17506734 40.21199974 28.17506734 40.21199974 30 38 C31.40053132 34.21478022 31.22423676 30.15957321 31.31640625 26.171875 C31.33718735 25.42286926 31.35796844 24.67386353 31.37937927 23.90216064 C31.44457088 21.51819712 31.50361783 19.13412688 31.5625 16.75 C31.60571416 15.13019746 31.64932937 13.51040557 31.69335938 11.890625 C31.80022096 7.92719168 31.90157333 3.9636514 32 0 C35.63 0 39.26 0 43 0 C43 12.21 43 24.42 43 37 C42.34 37 41.68 37 41 37 C40.9175 37.556875 40.835 38.11375 40.75 38.6875 C39.42803139 42.76356987 36.96985269 45.32110311 33.5 47.75 C26.88922024 51.05538988 18.61540352 51.13425589 11.625 48.875 C5.61096478 46.25538957 2.44146422 40.8596867 0 35 C-0.24748197 32.17036749 -0.35238888 29.57693528 -0.29296875 26.7578125 C-0.28872391 25.98944061 -0.28447906 25.22106873 -0.28010559 24.42941284 C-0.26341826 21.99424015 -0.22578641 19.5599192 -0.1875 17.125 C-0.17244023 15.46615785 -0.15875409 13.80730263 -0.14648438 12.1484375 C-0.11354759 8.0986341 -0.06183594 4.04946106 0 0 Z " fill="#0D0D0D" transform="translate(277,85)"/>
<path d="M0 0 C6.04057548 0.05752929 12.30988896 2.95363543 17.01171875 6.66796875 C21.23608025 11.95749877 21.79699365 16.56870017 21.66796875 23.0546875 C21.66372391 23.86745148 21.65947906 24.68021545 21.65510559 25.51760864 C21.63840804 28.09541959 21.60077362 30.6724282 21.5625 33.25 C21.54744158 35.00519699 21.5337552 36.76040631 21.52148438 38.515625 C21.48853392 42.80238913 21.43681453 47.08855886 21.375 51.375 C19.72925434 51.40188151 18.08338587 51.42134123 16.4375 51.4375 C15.06271484 51.45490234 15.06271484 51.45490234 13.66015625 51.47265625 C11.375 51.375 11.375 51.375 10.375 50.375 C10.27675955 47.91441941 10.23787244 45.47679394 10.234375 43.015625 C10.2160401 41.49217263 10.19646916 39.96873473 10.17578125 38.4453125 C10.14685235 36.03783954 10.12500128 33.63129064 10.12451172 31.22363281 C10.12116853 28.90345836 10.08656349 26.58542636 10.046875 24.265625 C10.0539447 23.55085999 10.0610144 22.83609497 10.06829834 22.09967041 C9.97312197 18.1738494 9.48151451 16.50644275 6.9777832 13.41674805 C4.22894012 11.26042362 3.22662874 10.75343393 -0.1875 10.9375 C-1.30318359 10.97037109 -1.30318359 10.97037109 -2.44140625 11.00390625 C-4.86650439 11.41604279 -6.55569256 12.04570979 -8.625 13.375 C-9.43671228 15.93019921 -9.43671228 15.93019921 -9.625 18.375 C-10.285 18.375 -10.945 18.375 -11.625 18.375 C-11.625 28.935 -11.625 39.495 -11.625 50.375 C-14.595 50.375 -17.565 50.375 -20.625 50.375 C-20.64993556 46.39144868 -20.66797028 42.40792833 -20.67993164 38.42431641 C-20.68736421 36.41176759 -20.70007829 34.39924051 -20.71289062 32.38671875 C-20.76031636 13.51127589 -20.76031636 13.51127589 -16.625 7.375 C-11.22704149 2.37515556 -7.21581723 0.74646385 0 0 Z " fill="#0D0D0D" transform="translate(52.625,83.625)"/>
<path d="M0 0 C3.63 0 7.26 0 11 0 C11 4.29 11 8.58 11 13 C15.62 13 20.24 13 25 13 C25 15.64 25 18.28 25 21 C20.38 21 15.76 21 11 21 C11.07402565 24.93357005 11.15686557 28.86539381 11.26245117 32.7980957 C11.31201319 34.7929063 11.34651133 36.78807257 11.38085938 38.78320312 C11.41630859 40.03681641 11.45175781 41.29042969 11.48828125 42.58203125 C11.51446533 43.73936768 11.54064941 44.8967041 11.56762695 46.08911133 C11.76933415 48.98242553 11.76933415 48.98242553 13.34960938 50.86914062 C15.86350096 52.59167699 18.18095589 52.52585784 21.1875 52.6875 C22.27417969 52.75324219 23.36085938 52.81898437 24.48046875 52.88671875 C25.31191406 52.92410156 26.14335938 52.96148437 27 53 C27.29296875 59.0546875 27.29296875 59.0546875 27 61 C23.56060073 63.29293284 22.17437319 63.27019638 18.125 63.25 C16.58199219 63.25773437 16.58199219 63.25773437 15.0078125 63.265625 C9.69999488 62.79688267 5.71451682 60.81490917 2 57 C-0.15882371 50.46115664 -0.26385057 44.34230567 -0.1953125 37.5 C-0.1924826 36.42371338 -0.18965271 35.34742676 -0.18673706 34.23852539 C-0.17560731 30.82556701 -0.15051595 27.4128781 -0.125 24 C-0.11496089 21.67578506 -0.10583667 19.35156598 -0.09765625 17.02734375 C-0.07569155 11.35145982 -0.04121151 5.67577549 0 0 Z " fill="#151515" transform="translate(89,73)"/>
<path d="M0 0 C3.37837848 -0.28522895 6.62824252 -0.41052242 10 0 C11.8125 1.875 11.8125 1.875 13 5 C13.89027866 6.69043708 14.78661322 8.37769241 15.6875 10.0625 C17.51159979 13.55465564 18 14.92609786 18 19 C18.66 19 19.32 19 20 19 C20.26554687 19.71027344 20.53109375 20.42054687 20.8046875 21.15234375 C21.15789062 22.07144531 21.51109375 22.99054688 21.875 23.9375 C22.22304687 24.85402344 22.57109375 25.77054688 22.9296875 26.71484375 C23.7819086 29.14941056 23.7819086 29.14941056 26 30 C26.26683594 28.99195312 26.53367188 27.98390625 26.80859375 26.9453125 C28.26280125 21.85366438 30.50096114 17.12988147 32.66015625 12.3046875 C33.80436865 9.48251932 34.54213042 6.99593679 35 4 C35.66 4 36.32 4 37 4 C37.33 2.68 37.66 1.36 38 0 C41.63 0 45.26 0 49 0 C48.2664351 3.66782452 47.69602397 6.00456996 46.1875 9.25 C45.83429688 10.01957031 45.48109375 10.78914063 45.1171875 11.58203125 C44.74851562 12.37996094 44.37984375 13.17789063 44 14 C43.2684252 15.64476433 42.53916827 17.29056205 41.8125 18.9375 C40.90796163 20.98081974 39.99934778 23.00130444 39 25 C38.34 25 37.68 25 37 25 C36.4740625 26.794375 36.4740625 26.794375 35.9375 28.625 C33.69896966 35.4166576 30.28640655 41.67029095 27 48 C25.02 48 23.04 48 21 48 C20.608125 46.88625 20.21625 45.7725 19.8125 44.625 C17.64394303 38.82152848 14.81531085 33.32294189 11.84765625 27.890625 C11 26 11 26 11 23 C10.34 23 9.68 23 9 23 C4.59225513 12.62642369 4.59225513 12.62642369 4 7 C3.34 7 2.68 7 2 7 C0.5393715 4.35261084 0 3.10551666 0 0 Z " fill="#131313" transform="translate(219,86)"/>
<path d="M0 0 C0 3.63 0 7.26 0 11 C-1.711875 11.103125 -3.42375 11.20625 -5.1875 11.3125 C-9.48219221 11.70493648 -12.63712525 12.08550855 -16 15 C-17.18001549 18.54004646 -17.22912346 21.8227256 -17.31640625 25.51171875 C-17.33718735 26.23994339 -17.35796844 26.96816803 -17.37937927 27.71846008 C-17.44468746 30.04137875 -17.50367237 32.36440906 -17.5625 34.6875 C-17.60570305 36.26368335 -17.64931792 37.83985548 -17.69335938 39.41601562 C-17.8003496 43.27722975 -17.90166961 47.13855603 -18 51 C-21.3 51 -24.6 51 -28 51 C-28.04970487 46.28606679 -28.085863 41.5722886 -28.10986328 36.8581543 C-28.11987623 35.25689026 -28.1334906 33.65564429 -28.15087891 32.05444336 C-28.17533565 29.74328124 -28.18653029 27.43236238 -28.1953125 25.12109375 C-28.20563507 24.41351425 -28.21595764 23.70593475 -28.22659302 22.97691345 C-28.2283521 15.0564011 -26.56578132 9.69521809 -21 4 C-14.47136378 -0.73326126 -7.76279911 -0.0935277 0 0 Z " fill="#080808" transform="translate(211,84)"/>
<path d="M0 0 C3.63 0 7.26 0 11 0 C11.02464247 6.81762424 11.04283244 13.6352228 11.05493164 20.45288086 C11.05997333 22.77417451 11.06680651 25.09546497 11.07543945 27.41674805 C11.08751225 30.74528795 11.09322979 34.07378602 11.09765625 37.40234375 C11.10281754 38.44712387 11.10797882 39.49190399 11.11329651 40.56834412 C11.11337204 41.52926468 11.11344757 42.49018524 11.11352539 43.48022461 C11.115746 44.33071884 11.11796661 45.18121307 11.12025452 46.05747986 C11 48 11 48 10 49 C6.7 49 3.4 49 0 49 C0 32.83 0 16.66 0 0 Z " fill="#171717" transform="translate(6,86)"/>
<path d="M0 0 C11.88 0 23.76 0 36 0 C36 2.64 36 5.28 36 8 C24.12 8 12.24 8 0 8 C0 5.36 0 2.72 0 0 Z " fill="#151515" transform="translate(338,126)"/>
<path d="M0 0 C11.88 0 23.76 0 36 0 C36 2.64 36 5.28 36 8 C24.12 8 12.24 8 0 8 C0 5.36 0 2.72 0 0 Z " fill="#161616" transform="translate(130,126)"/>
<path d="M0 0 C2.34143676 3.23341268 2 4.72393148 2 9 C-5.92 9 -13.84 9 -22 9 C-21 2 -21 2 -19.1875 0.125 C-13.35583193 -2.87414358 -5.77477588 -3.39692699 0 0 Z " fill="#F9F9F9" transform="translate(158,76)"/>
<path d="M0 0 C2.32898796 1.81143508 4.37803634 3.46204442 6.25 5.75 C6.25 7.07 6.25 8.39 6.25 9.75 C-1.67 9.75 -9.59 9.75 -17.75 9.75 C-16.75 2.75 -16.75 2.75 -15.375 0.875 C-10.80073747 -2.29179714 -4.89950953 -2.22704979 0 0 Z " fill="#F4F4F4" transform="translate(361.75,75.25)"/>
<path d="M0 0 C0.33 0.66 0.66 1.32 1 2 C-1.97 2 -4.94 2 -8 2 C-8.33 2.66 -8.66 3.32 -9 4 C-9.99 4 -10.98 4 -12 4 C-12.33 15.88 -12.66 27.76 -13 40 C-15.64458379 41.32229189 -17.67761301 41.09677194 -20.625 41.0625 C-21.62789062 41.05347656 -22.63078125 41.04445312 -23.6640625 41.03515625 C-24.43492188 41.02355469 -25.20578125 41.01195312 -26 41 C-26.04950115 36.23113513 -26.08576738 31.46242041 -26.10986328 26.69335938 C-26.11991023 25.07158808 -26.13355015 23.44983484 -26.15087891 21.828125 C-26.17518493 19.49474626 -26.18649613 17.1616074 -26.1953125 14.828125 C-26.20563507 14.10506165 -26.21595764 13.38199829 -26.22659302 12.63702393 C-26.22748939 8.59963241 -25.86326516 6.72653031 -24 3 C-24.33 15.21 -24.66 27.42 -25 40 C-22.03 40 -19.06 40 -16 40 C-16 29.44 -16 18.88 -16 8 C-15.34 8 -14.68 8 -14 8 C-13.9175 7.236875 -13.835 6.47375 -13.75 5.6875 C-13 3 -13 3 -11.5 1.1875 C-7.73512805 -0.60081417 -4.09873595 -0.23646554 0 0 Z " fill="#929292" transform="translate(57,94)"/>
<path d="M0 0 C3.63 0 7.26 0 11 0 C11 10.56 11 21.12 11 32 C10.67 32 10.34 32 10 32 C10 22.1 10 12.2 10 2 C7.36 2 4.72 2 2 2 C2 13.22 2 24.44 2 36 C1.34 35.67 0.68 35.34 0 35 C0 23.45 0 11.9 0 0 Z " fill="#5C5C5C" transform="translate(277,85)"/>
<path d="M0 0 C0 3.63 0 7.26 0 11 C-2.734375 11.1953125 -5.46875 11.390625 -8.203125 11.5859375 C-10.89633189 11.98465249 -12.66963279 12.63507063 -15 14 C-13.82421875 12.015625 -13.82421875 12.015625 -12 10 C-9.51953125 9.609375 -9.51953125 9.609375 -6.8125 9.75 C-5.91144531 9.78609375 -5.01039063 9.8221875 -4.08203125 9.859375 C-3.39496094 9.90578125 -2.70789063 9.9521875 -2 10 C-2 7.36 -2 4.72 -2 2 C-10.23799452 1.68239719 -10.23799452 1.68239719 -17.57421875 4.84765625 C-19.69463641 7.01483661 -19.69463641 7.01483661 -21.51171875 9.28515625 C-22.24841797 10.13400391 -22.24841797 10.13400391 -23 11 C-23.66 11 -24.32 11 -25 11 C-25.33 12.65 -25.66 14.3 -26 16 C-26.6640625 14.25390625 -26.6640625 14.25390625 -27 12 C-24.56771841 7.23601989 -20.93478347 3.15105946 -16 1 C-10.64243154 -0.31653559 -5.49289591 -0.06617947 0 0 Z " fill="#878787" transform="translate(211,84)"/>
<path d="M0 0 C0.66 0.33 1.32 0.66 2 1 C0.91851833 2.25160238 -0.16527922 3.50120381 -1.25 4.75 C-1.88679687 5.48347656 -2.52359375 6.21695313 -3.1796875 6.97265625 C-5 9 -5 9 -7.375 11.1875 C-10.92126141 15.14294542 -10.12517133 20.77468933 -10.0625 25.8125 C-10.05798828 26.50537109 -10.05347656 27.19824219 -10.04882812 27.91210938 C-10.03713156 29.60811068 -10.01919924 31.30406703 -10 33 C-12.89927998 30.10072002 -12.30045388 27.91446686 -12.3125 23.875 C-12.22861726 16.56855421 -12.05439363 11.12479632 -6.796875 5.74609375 C-4.58634735 3.74758212 -2.33981962 1.84438611 0 0 Z " fill="#3E3E3E" transform="translate(136,67)"/>
<path d="M0 0 C-1.34191406 -0.04833984 -1.34191406 -0.04833984 -2.7109375 -0.09765625 C-9.99176769 -0.02779754 -14.38913291 0.53378851 -19.875 5.5625 C-21.28139162 7.01185214 -22.66860117 8.48146907 -24 10 C-24.33 8.68 -24.66 7.36 -25 6 C-18.41839239 -0.36155386 -8.65785266 -5.77190177 0 0 Z " fill="#727272" transform="translate(60,86)"/>
<path d="M0 0 C0 0.66 0 1.32 0 2 C-8.36005884 4.38858824 -16.38735156 4.190218 -25 4 C-25 3.34 -25 2.68 -25 2 C-25.66 1.67 -26.32 1.34 -27 1 C-26.07719238 1.00785522 -26.07719238 1.00785522 -25.13574219 1.01586914 C-22.34050524 1.03669371 -19.54528464 1.04967759 -16.75 1.0625 C-15.78191406 1.07087891 -14.81382812 1.07925781 -13.81640625 1.08789062 C-12.88183594 1.09111328 -11.94726562 1.09433594 -10.984375 1.09765625 C-9.69611816 1.10551147 -9.69611816 1.10551147 -8.38183594 1.11352539 C-5.49254691 0.97581328 -2.87238898 0 0 0 Z " fill="#3B3B3B" transform="translate(368,112)"/>
<path d="M0 0 C2.0625 1.25 2.0625 1.25 2.875 3.375 C2.936875 3.99375 2.99875 4.6125 3.0625 5.25 C2.45535156 4.53263672 2.45535156 4.53263672 1.8359375 3.80078125 C-1.24856641 1.10353885 -4.96860916 1.25 -8.9375 1.25 C-13.06881126 2.25987608 -15.02957603 4.24180279 -17.9375 7.25 C-18.5975 7.25 -19.2575 7.25 -19.9375 7.25 C-19.375 4.9375 -19.375 4.9375 -17.9375 2.25 C-11.99061337 -1.19919425 -6.73196572 -1.71879976 0 0 Z " fill="#B5B5B5" transform="translate(155.9375,74.75)"/>
<path d="M0 0 C1.06927734 0.24363281 1.06927734 0.24363281 2.16015625 0.4921875 C8.66344275 1.65508605 15.55264127 1.39402351 22 0 C22 0.66 22 1.32 22 2 C19.95928485 2.33910994 17.91737379 2.67102704 15.875 3 C14.16957031 3.2784375 14.16957031 3.2784375 12.4296875 3.5625 C9.23862398 3.96956049 6.21182209 4.07809902 3 4 C3 3.34 3 2.68 3 2 C2.01 1.67 1.02 1.34 0 1 C0 0.67 0 0.34 0 0 Z " fill="#8E8E8E" transform="translate(288,133)"/>
<path d="M0 0 C1.32 0.33 2.64 0.66 4 1 C1.69 3.31 -0.62 5.62 -3 8 C-3.33 6.68 -3.66 5.36 -4 4 C-2.3125 1.6875 -2.3125 1.6875 0 0 Z " fill="#3E3E3E" transform="translate(39,88)"/>
<path d="M0 0 C0.66 0.33 1.32 0.66 2 1 C0.37660195 2.70884005 -1.29319053 4.37446717 -3 6 C-3.66 6 -4.32 6 -5 6 C-5.33 7.65 -5.66 9.3 -6 11 C-6.8125 9.375 -6.8125 9.375 -7 7 C-3.01538462 1.50769231 -3.01538462 1.50769231 0 0 Z " fill="#434343" transform="translate(191,89)"/>
<path d="M0 0 C5.94 0.66 11.88 1.32 18 2 C18 2.33 18 2.66 18 3 C12.72 3 7.44 3 2 3 C2 2.34 2 1.68 2 1 C1.34 0.67 0.68 0.34 0 0 Z " fill="#8E8E8E" transform="translate(341,113)"/>
<path d="M0 0 C1.32 0.33 2.64 0.66 4 1 C2.71034824 2.37562854 1.37310707 3.70766393 0 5 C-0.66 5 -1.32 5 -2 5 C-1.34 3.35 -0.68 1.7 0 0 Z " fill="#CBCBCB" transform="translate(138,77)"/>
</svg>
